<svg xmlns="http://www.w3.org/2000/svg" viewBox="0 0 120 120"><defs><radialGradient id="s"><stop stop-color="#f0b873"/><stop offset="1" stop-color="#9b5f34"/></radialGradient></defs><circle cx="60" cy="60" r="56" fill="#25160e" stroke="#d2a052" stroke-width="5"/><path d="M22 50c4-29 21-42 38-42s34 13 38 42c-17-9-59-9-76 0z" fill="#9b2f21"/><circle cx="60" cy="57" r="33" fill="url(#s)"/><circle cx="48" cy="53" r="4" fill="#22140d"/><circle cx="72" cy="53" r="4" fill="#22140d"/><path d="M52 64q8 7 16 0" fill="none" stroke="#5a3420" stroke-width="3"/><path d="M30 64q12 46 30 43 18 3 30-43c-9 9-17 13-30 13S39 73 30 64z" fill="#e9dfc9"/><path d="M41 72q19 13 38 0M38 82q22 13 44 0M43 92q17 10 34 0" fill="none" stroke="#9e8c73" stroke-width="3"/></svg>